<svg width="68" height="69" viewBox="0 0 68 69" fill="none" xmlns="http://www.w3.org/2000/svg">
<path d="M42.3348 6.86798C42.5151 6.7864 43.4947 6.45953 43.8662 6.33675C43.9835 6.28114 44.1079 6.23777 44.2381 6.20798C45.8292 5.84448 46.2146 7.25181 46.2407 7.34997C46.3556 7.78245 46.3868 8.39602 45.8066 9.03401C45.2285 9.67004 44.3256 9.70131 43.5844 10.0368C42.8919 10.3501 42.0886 10.5659 41.4379 10.9919C41.36 11.1459 41.259 11.2924 41.1351 11.4262C40.4608 12.1542 39.36 12.2327 38.6785 11.6014C38.2689 11.222 38.1592 10.8504 38.1137 10.5677C38.0404 10.1125 38.0562 9.41304 38.9706 8.63159C39.9297 7.81188 41.212 7.37615 42.3348 6.86798Z" fill="white" fill-opacity="0.09"/>
<path fill-rule="evenodd" clip-rule="evenodd" d="M36.2539 11.1292C35.3246 11.5452 33.8677 12.9458 32.9071 14.4304C32.1809 15.5526 31.7663 16.7148 31.7705 17.5049C31.7757 18.4661 32.5582 19.1909 33.517 19.1225C34.4757 19.0541 35.2499 18.2182 35.2448 17.2571C35.2432 16.9716 35.5207 16.6011 35.7829 16.1957C36.3035 15.3911 36.9863 14.5294 37.4899 14.3039C38.386 13.9028 38.8365 12.8658 38.4954 11.9897C38.1543 11.1136 37.1499 10.728 36.2539 11.1292Z" fill="white" fill-opacity="0.09"/>
<path fill-rule="evenodd" clip-rule="evenodd" d="M32.641 23.7372C33.1992 23.0683 33.2304 22.1021 32.6763 21.4688C32.3209 21.0626 31.9267 20.9399 31.5882 20.9031C31.1346 20.8538 30.6819 20.9656 30.2618 21.2822C29.9578 21.5112 29.5726 22.1648 29.4851 22.3934C29.1735 23.2075 29.113 24.0309 29.1829 24.8499C29.2499 25.6346 29.4799 26.4091 29.4837 27.1431C29.4889 28.1043 30.2715 28.8291 31.2302 28.7607C32.189 28.6923 32.9632 27.8564 32.9579 26.8953C32.9548 26.2904 32.8436 25.6603 32.7385 25.0213C32.6687 24.5965 32.5653 24.1658 32.641 23.7372Z" fill="white" fill-opacity="0.09"/>
<path fill-rule="evenodd" clip-rule="evenodd" d="M36.0768 30.5795C35.7193 30.2097 34.9664 29.4174 34.8479 29.1841C34.4239 28.3496 33.3815 28.0635 32.5216 28.5455C31.6617 29.0274 31.3078 30.0962 31.7319 30.9306C32.0445 31.5456 33.4242 33.4212 34.6919 33.9832C35.8348 34.4897 36.9346 34.3271 37.8426 33.3468C38.5169 32.6187 38.5109 31.5152 37.8293 30.8839C37.3535 30.4432 36.6734 30.3484 36.0768 30.5795Z" fill="white" fill-opacity="0.09"/>
<path fill-rule="evenodd" clip-rule="evenodd" d="M40.8235 30.0276C40.3852 29.9604 39.9102 30.0649 39.5049 30.3563C38.7016 30.9342 38.4743 32.0293 38.9976 32.8005C39.3769 33.3593 40.1171 33.7977 41.2512 33.5218C42.4723 33.2247 44.9331 31.4862 45.43 30.9497C46.1043 30.2218 46.0983 29.1182 45.4167 28.4869C44.7352 27.8556 43.6344 27.9342 42.9602 28.6621C42.7329 28.9075 41.3257 29.736 40.8235 30.0276Z" fill="white" fill-opacity="0.09"/>
<path fill-rule="evenodd" clip-rule="evenodd" d="M43.6625 26.1647C43.8794 27.3158 44.7874 27.5105 44.9888 27.5467C45.9201 27.7139 46.8612 27.0791 47.089 26.1301C47.1655 25.8117 47.152 25.4982 47.0648 25.2158C46.999 24.8036 46.6815 22.991 46.0696 22.1387C45.4975 21.3419 44.6921 20.8975 43.6603 20.971C42.7016 21.0395 41.9274 21.8753 41.9326 22.8364C41.9395 24.1213 43.3924 24.731 43.6625 26.1647Z" fill="white" fill-opacity="0.09"/>
<path fill-rule="evenodd" clip-rule="evenodd" d="M36.5285 23.0556C36.6391 23.0378 37.0871 22.97 37.357 22.9817C37.5539 22.9902 37.8004 23.0326 37.9829 23.0697C38.1195 23.2482 38.2961 23.3993 38.5088 23.5095C39.3373 23.9388 40.4016 23.5869 40.8842 22.7243C41.3432 21.9036 41.3747 20.8077 40.1376 20.0811C39.5222 19.7197 38.1095 19.4013 36.8315 19.5104C35.7229 19.605 34.7449 20.0385 34.1797 20.6488C33.5054 21.3768 33.5113 22.4804 34.1929 23.1116C34.8351 23.7065 35.8496 23.6711 36.5285 23.0556Z" fill="white" fill-opacity="0.09"/>
<path fill-rule="evenodd" clip-rule="evenodd" d="M25.1104 30.8944C25.5712 30.4765 26.8815 29.2837 27.549 28.6374C27.5982 28.617 27.6469 28.5939 27.695 28.5685C28.5656 28.1084 28.9465 27.0475 28.545 26.2008C28.2857 25.6542 27.8619 25.3796 27.352 25.2833C27.1033 25.2363 26.8153 25.2377 26.5036 25.3262C26.1612 25.4236 25.6813 25.7259 25.4032 26.0261C24.8727 26.5989 22.768 28.2896 22.1628 29.1414C21.2805 30.3832 21.7081 31.3697 22.2191 31.843C22.9006 32.4742 24.0014 32.3957 24.6757 31.6676C24.8881 31.4383 25.0329 31.1718 25.1104 30.8944Z" fill="white" fill-opacity="0.09"/>
<path fill-rule="evenodd" clip-rule="evenodd" d="M22.5362 39.8464C22.5584 39.6485 22.6251 39.0984 22.7202 38.7042C22.9327 37.8243 23.4128 36.6249 23.545 36.3028C23.8231 35.9718 23.9904 35.5473 23.9856 35.0959C23.9752 34.1352 23.1884 33.415 22.2297 33.4885C21.9166 33.5126 21.4829 33.6154 21.0514 34.0292C20.9044 34.1701 20.6193 34.5304 20.3582 35.1004C19.8927 36.1166 19.2 38.2207 19.0812 39.6327C18.981 40.8232 19.3432 41.69 19.7936 42.1071C20.4751 42.7384 21.5759 42.6598 22.2502 41.9318C22.8045 41.3333 22.8992 40.481 22.5362 39.8464Z" fill="white" fill-opacity="0.09"/>
<path fill-rule="evenodd" clip-rule="evenodd" d="M22.032 46.6622C22.0583 46.5001 22.0619 46.3332 22.0407 46.1654C21.9206 45.2194 21.0508 44.6 20.0997 44.7832C19.2496 44.9468 18.8801 45.428 18.6614 45.8632C18.4591 46.2657 18.3714 46.837 18.5741 47.4229C18.9014 48.3686 19.035 50.0503 19.0405 51.0878C19.0457 52.049 19.8283 52.7738 20.787 52.7054C21.7457 52.637 22.5199 51.8012 22.5147 50.8399C22.5086 49.6833 22.3471 47.9167 22.032 46.6622Z" fill="white" fill-opacity="0.09"/>
<path fill-rule="evenodd" clip-rule="evenodd" d="M23.9835 63.936C24.0336 63.9998 24.0893 64.0601 24.1503 64.1167C25.3188 65.199 26.5164 64.0461 26.5989 63.9587C26.8891 63.6514 27.2119 63.1649 27.0925 62.4158C27.0855 62.3717 27.0696 62.0214 26.7218 61.6089C26.6254 61.4945 25.8558 60.6602 25.6355 60.3472C25.4248 60.0477 24.4602 57.9901 24.2167 57.4678C24.3118 56.9646 24.1915 56.4384 23.8424 56.0439C23.2263 55.3478 22.1298 55.3236 21.3951 55.9899C20.9754 56.3705 20.5259 57.1574 20.7572 58.2724C21.0151 59.516 22.4183 62.0066 22.7553 62.4855C22.9871 62.815 23.824 63.7571 23.9835 63.936Z" fill="white" fill-opacity="0.09"/>
</svg>
