<svg width="174" height="41" viewBox="0 0 174 41" fill="none" xmlns="http://www.w3.org/2000/svg">
<path d="M35.7874 27.732C35.7514 25.4995 36.2273 23.2884 37.1786 21.2685C38.0288 19.4244 39.3982 17.8682 41.1192 16.7904C42.8403 15.7126 44.8382 15.1599 46.8684 15.2002C48.3847 15.1484 49.8934 15.4344 51.2856 16.0373C52.6777 16.6402 53.9185 17.5451 54.918 18.6863C56.9751 21.0104 58.0018 24.087 57.9982 27.916V28.4898C58.0359 30.7329 57.5601 32.9549 56.607 34.9858C55.7638 36.8204 54.4012 38.3675 52.6877 39.4355C50.9543 40.503 48.9528 41.0551 46.9172 41.0271C45.4033 41.0771 43.8971 40.7908 42.5071 40.189C41.1171 39.5871 39.8778 38.6846 38.8784 37.5463C36.8177 35.2258 35.7874 32.1474 35.7874 28.3112V27.732ZM38.5482 28.4898C38.5482 31.4672 39.3187 33.9086 40.8597 35.814C41.5929 36.709 42.5156 37.43 43.5612 37.9251C44.6069 38.4202 45.7494 38.677 46.9063 38.677C48.0633 38.677 49.2058 38.4202 50.2514 37.9251C51.2971 37.43 52.2198 36.709 52.953 35.814C54.4976 33.9086 55.2681 31.3823 55.2645 28.2354V27.6941C55.2774 25.8975 54.9084 24.1188 54.1818 22.4757C53.5611 21.0108 52.5429 19.7488 51.2424 18.8325C49.9517 17.962 48.425 17.5085 46.8684 17.5333C45.709 17.5129 44.5611 17.7672 43.5187 18.2752C42.4763 18.7832 41.5688 19.5307 40.8705 20.4565C39.3223 22.3836 38.5482 24.9098 38.5482 28.0351V28.4898Z" fill="black"/>
<path d="M65.8313 15.6603L65.9233 19.9152C66.7731 18.4687 67.9764 17.2617 69.4203 16.4074C70.8253 15.5982 72.4219 15.1812 74.0432 15.2002C76.7066 15.2002 78.6915 15.9508 79.9979 17.4521C81.3043 18.9534 81.9629 21.2072 81.9737 24.2134V40.5399H79.24V24.1917C79.24 21.9668 78.7528 20.3158 77.8217 19.2223C76.8906 18.1288 75.4128 17.5983 73.372 17.5983C71.7254 17.5785 70.1253 18.1445 68.8573 19.1952C67.4955 20.3335 66.4855 21.8354 65.9449 23.5259V40.5399H63.2383V15.6387L65.8313 15.6603Z" fill="black"/>
<path d="M125.832 9.28882V15.6603H131.002V17.9122H125.854V34.5311C125.854 35.9169 126.103 36.9454 126.601 37.6167C127.099 38.2933 127.927 38.6344 129.097 38.6344C129.844 38.604 130.589 38.5263 131.327 38.4016L131.441 40.6373C130.487 40.9253 129.492 41.0552 128.496 41.0216C126.612 41.0216 125.248 40.4803 124.382 39.3976C123.515 38.315 123.093 36.691 123.093 34.5257V17.9122H118.514V15.6603H123.093V9.28882H125.832Z" fill="black"/>
<path d="M103.73 24.3432H109.057C108.529 22.5222 107.443 20.9123 105.953 19.7398C104.463 18.5673 102.643 17.891 100.749 17.8061C98.8551 17.7211 96.982 18.2317 95.393 19.2661C93.804 20.3005 92.579 21.8067 91.89 23.5731C91.2011 25.3396 91.0829 27.2775 91.5521 29.1145C92.0212 30.9516 93.0541 32.5955 94.5056 33.8154C95.9572 35.0352 97.7544 35.7696 99.6448 35.9155C101.535 36.0613 103.424 35.6112 105.045 34.6285C105.425 34.4054 105.787 34.1538 106.128 33.876L106.48 33.5729L106.545 33.5134C106.865 33.2108 107.249 32.9834 107.669 32.8477C108.088 32.7119 108.533 32.6712 108.97 32.7284C109.351 32.7707 109.718 32.8959 110.045 33.095C110.372 33.2942 110.652 33.5627 110.865 33.8815C111.122 34.2624 111.241 34.7202 111.202 35.1784C111.162 35.6365 110.967 36.0673 110.648 36.3986C110.018 37.087 109.323 37.7141 108.575 38.2717L108.185 38.5477C106.37 39.7792 104.293 40.5697 102.119 40.8561C99.945 41.1425 97.734 40.9169 95.6624 40.1973C93.5909 39.4777 91.7162 38.2839 90.1878 36.7113C88.6595 35.1387 87.5197 33.2307 86.8595 31.1395C86.1992 29.0483 86.0368 26.8318 86.3851 24.6667C86.7334 22.5016 87.5828 20.4478 88.8655 18.6691C90.1483 16.8905 91.8289 15.4362 93.7734 14.4223C95.7178 13.4083 97.8723 12.8628 100.065 12.8291C101.928 12.8012 103.778 13.1424 105.508 13.833C107.238 14.5236 108.815 15.55 110.146 16.8529C111.478 18.1558 112.538 19.7095 113.266 21.4243C113.995 23.1392 114.376 24.9812 114.389 26.8442C114.394 27.7636 114.307 28.6812 114.129 29.5833H103.584C103.022 30.2569 102.265 30.7388 101.417 30.9619C100.57 31.1851 99.6732 31.1385 98.8531 30.8285C98.0329 30.5186 97.3298 29.9607 96.8415 29.2325C96.3532 28.5044 96.104 27.6421 96.1286 26.7657C96.1532 25.8893 96.4503 25.0424 96.9786 24.3427C97.5069 23.643 98.2402 23.1254 99.0764 22.8619C99.9126 22.5984 100.81 22.6021 101.644 22.8724C102.478 23.1427 103.207 23.6663 103.73 24.3703V24.3432Z" fill="url(#paint0_linear_1_416)"/>
<path d="M3.12348 18.7512C4.84853 18.7512 6.24696 17.3528 6.24696 15.6278C6.24696 13.9027 4.84853 12.5043 3.12348 12.5043C1.39843 12.5043 0 13.9027 0 15.6278C0 17.3528 1.39843 18.7512 3.12348 18.7512Z" fill="black"/>
<path d="M15.3738 26.8712C17.0989 26.8712 18.4973 25.4728 18.4973 23.7477C18.4973 22.0227 17.0989 20.6243 15.3738 20.6243C13.6488 20.6243 12.2503 22.0227 12.2503 23.7477C12.2503 25.4728 13.6488 26.8712 15.3738 26.8712Z" fill="black"/>
<path d="M3.5295 10.2903C4.94661 10.2903 6.09541 9.14147 6.09541 7.72436C6.09541 6.30724 4.94661 5.15845 3.5295 5.15845C2.11239 5.15845 0.963593 6.30724 0.963593 7.72436C0.963593 9.14147 2.11239 10.2903 3.5295 10.2903Z" fill="black"/>
<path d="M28.3062 10.2903C29.7233 10.2903 30.8721 9.14147 30.8721 7.72436C30.8721 6.30724 29.7233 5.15845 28.3062 5.15845C26.8891 5.15845 25.7403 6.30724 25.7403 7.72436C25.7403 9.14147 26.8891 10.2903 28.3062 10.2903Z" fill="black"/>
<path d="M27.7594 7.04236L16.3265 15.8552C16.0676 16.0576 15.7484 16.1675 15.4198 16.1675C15.0912 16.1675 14.772 16.0576 14.5131 15.8552L3.07475 7.04236" stroke="black" stroke-miterlimit="10"/>
<path d="M0.757874 16.9866H5.48369V39.0729C5.47801 39.4496 5.32436 39.8089 5.05595 40.0733C4.78754 40.3376 4.4259 40.4858 4.04917 40.4857H2.19781C1.82014 40.4872 1.45712 40.3397 1.18754 40.0752C0.917963 39.8107 0.763571 39.4505 0.757874 39.0729V16.9866Z" fill="black"/>
<path d="M28.3062 18.7512C30.0313 18.7512 31.4297 17.3528 31.4297 15.6278C31.4297 13.9027 30.0313 12.5043 28.3062 12.5043C26.5812 12.5043 25.1827 13.9027 25.1827 15.6278C25.1827 17.3528 26.5812 18.7512 28.3062 18.7512Z" fill="black"/>
<path d="M25.9406 16.9866H30.6664V39.0729C30.6607 39.4496 30.5071 39.8089 30.2386 40.0733C29.9702 40.3376 29.6086 40.4858 29.2319 40.4857H27.3805C27.1921 40.4857 27.0056 40.4486 26.8315 40.3766C26.6575 40.3045 26.4994 40.1988 26.3661 40.0656C26.2329 39.9324 26.1273 39.7742 26.0552 39.6002C25.9831 39.4261 25.946 39.2396 25.946 39.0512V16.9866H25.9406Z" fill="black"/>
<path d="M12.9919 25.5179H17.7178V39.0512C17.7178 39.4289 17.5689 39.7913 17.3034 40.0599C17.0378 40.3284 16.6771 40.4815 16.2995 40.4857H14.4481C14.2597 40.4886 14.0726 40.4543 13.8975 40.3849C13.7223 40.3154 13.5626 40.2121 13.4274 40.0809C13.2921 39.9497 13.1841 39.7932 13.1094 39.6202C13.0347 39.4473 12.9948 39.2613 12.9919 39.0729V25.5396V25.5179Z" fill="black"/>
<path d="M151.156 31.4293L155.611 39.1703H161.484L152.655 24.8142C151.778 26.2181 150.912 27.7284 150.057 29.3451C150.349 29.9514 150.744 30.6985 151.156 31.4293Z" fill="black"/>
<path d="M147.507 17.4521L143.577 10.4148H137.623L145.012 22.6218C146.024 21.3172 147.096 20.0234 148.216 18.7784C147.994 18.3345 147.751 17.8906 147.507 17.4521Z" fill="black"/>
<path d="M174 0.427246C174 0.427246 150.615 16.5048 144.064 40.6969H135.17C135.17 40.6969 150.615 9.3159 174 0.427246Z" fill="black"/>
<defs>
<linearGradient id="paint0_linear_1_416" x1="86.2773" y1="26.8604" x2="114.394" y2="26.8604" gradientUnits="userSpaceOnUse">
<stop stop-color="#70B544"/>
<stop offset="0.24" stop-color="#6AB244"/>
<stop offset="0.56" stop-color="#59AB45"/>
<stop offset="0.92" stop-color="#3E9E47"/>
<stop offset="1" stop-color="#379B47"/>
</linearGradient>
</defs>
</svg>
