<svg width="24" height="24" viewBox="0 0 24 24" fill="#3333" xmlns="http://www.w3.org/2000/svg">
<path d="M5.5 12C5.5 15.5899 8.41015 18.5 12 18.5C15.5899 18.5 18.5 15.5899 18.5 12C18.5 8.41015 15.5899 5.5 12 5.5C8.41015 5.5 5.5 8.41015 5.5 12Z" stroke="white" stroke-width="1.5" stroke-linecap="round" stroke-linejoin="round"/>
<path d="M4.86 19.14L4.99 19.01M19.01 19.01L19.14 19.14L19.01 19.01ZM4.86 4.86L4.99 4.99L4.86 4.86ZM21.92 12L22 12L21.92 12ZM2 12L2.08 12L2 12ZM12 2.08L12 2L12 2.08ZM12 22L12 21.92L12 22ZM19.01 4.99L19.14 4.86L19.01 4.99Z" stroke="white" stroke-width="2" stroke-linecap="round" stroke-linejoin="round"/>
</svg>
